<?xml version="1.0" standalone="no"?>
<!DOCTYPE svg PUBLIC "-//W3C//DTD SVG 20010904//EN"
 "http://www.w3.org/TR/2001/REC-SVG-20010904/DTD/svg10.dtd">
<svg version="1.0" xmlns="http://www.w3.org/2000/svg"
 width="216.000000pt" height="226.000000pt" viewBox="0 0 216.000000 226.000000"
 preserveAspectRatio="xMidYMid meet">

<g transform="translate(0.000000,226.000000) scale(0.100000,-0.100000)"
fill="#FFFFFF" stroke="none">
<path d="M1192 1728 l3 -143 30 0 c29 0 30 2 33 50 2 28 7 54 11 58 4 4 29
-20 55 -53 40 -51 53 -61 75 -58 l26 3 3 125 c3 118 1 126 -19 143 -39 31 -49
23 -49 -42 0 -68 -15 -87 -39 -50 -26 41 -98 109 -115 109 -15 0 -16 -15 -14
-142z"/>
<path d="M1460 1704 c0 -49 4 -94 8 -100 15 -23 49 -32 112 -30 l65 2 0 79 c1
105 -6 125 -44 125 l-30 0 -3 -67 c-2 -55 -6 -68 -20 -71 -16 -3 -18 5 -18 55
0 68 -6 79 -43 88 l-27 7 0 -88z"/>
<path d="M410 1055 l0 -716 83 3 82 3 3 633 2 632 275 0 275 0 0 80 0 80 -360
0 -360 0 0 -715z"/>
<path d="M632 948 l3 -603 215 0 215 0 -4 82 c-4 90 3 102 50 85 23 -9 24 -12
19 -87 -3 -42 -3 -78 -1 -81 2 -2 15 -4 28 -4 23 0 23 2 20 85 -4 88 -2 92 43
91 25 -1 25 -1 23 -95 -1 -52 -6 -98 -12 -104 -6 -6 -45 -9 -88 -8 -43 1 -75
0 -72 -3 2 -3 153 -23 334 -46 182 -22 351 -43 377 -46 52 -6 131 3 124 15 -7
10 -274 55 -486 81 -163 20 -145 29 63 29 l197 1 0 605 0 605 -525 0 -525 0 2
-602z m685 142 c51 -146 92 -273 93 -283 0 -16 -8 -18 -62 -15 l-63 3 -9 49
c-8 44 -12 50 -50 67 -50 23 -82 24 -129 4 -43 -18 -50 -28 -57 -80 l-5 -40
-59 -3 c-32 -2 -63 1 -68 6 -6 6 25 111 81 277 50 146 94 271 97 276 3 6 36 9
72 7 l67 -3 92 -265z"/>
<path d="M1126 1097 c-31 -102 -31 -102 -6 -127 26 -26 43 -25 74 4 l26 23
-30 88 c-16 49 -32 90 -34 92 -2 3 -16 -34 -30 -80z"/>
</g>
</svg>
